<svg width="337" height="249" viewBox="0 0 337 249" fill="none" xmlns="http://www.w3.org/2000/svg">
<path d="M102.195 78.7691C102.195 37.9391 133.401 11.5391 167.892 11.5391C200.74 11.5391 230.632 35.4795 233.343 73.0299H252.395C256.089 73.0299 257.896 77.4573 255.268 79.9989L228.251 106.973C226.609 108.613 224.062 108.613 222.42 106.973L195.403 79.9989C194.839 79.4259 194.457 78.7007 194.304 77.913C194.15 77.1254 194.231 76.31 194.538 75.568C194.843 74.8261 195.36 74.19 196.026 73.7389C196.69 73.2877 197.472 73.0412 198.276 73.0299H216.836C214.291 46.3019 193.596 27.9366 167.892 27.9366C140.382 27.9366 118.619 49.0075 118.619 78.7691C118.619 97.9542 134.633 123.37 167.892 153.706C173.147 148.868 177.993 144.195 182.428 139.685C180.982 136.84 180.223 133.695 180.21 130.503C180.21 125.067 182.373 119.854 186.223 116.01C190.073 112.166 195.294 110.006 200.74 110.006C206.185 110.006 211.407 112.166 215.257 116.01C219.107 119.854 221.27 125.067 221.27 130.503C221.268 133.674 220.526 136.801 219.103 139.634C217.681 142.469 215.618 144.935 213.076 146.836C210.535 148.737 207.585 150.022 204.46 150.588C201.336 151.154 198.122 150.986 195.074 150.098C188.669 156.821 181.359 163.708 173.312 170.759C170.191 173.464 165.511 173.464 162.39 170.759C122.315 135.505 102.195 104.841 102.195 78.7691Z" fill="#DA1212"/>
<path d="M45.6859 206.634H36.6538V202.358H59.7791V206.634H50.747V229.566H45.6859V206.634ZM67.2488 211.842C68.6503 209.665 71.1159 208.577 74.6458 208.577V213.202C74.2304 213.125 73.8541 213.086 73.5167 213.086C71.622 213.086 70.1426 213.643 69.0786 214.757C68.0144 215.845 67.4824 217.426 67.4824 219.499V229.566H62.6159V208.81H67.2488V211.842ZM86.602 208.577C89.6645 208.577 92.0004 209.315 93.6096 210.792C95.2447 212.244 96.0623 214.446 96.0623 217.4V229.566H91.4684V227.039C90.8714 227.947 90.0149 228.646 88.8989 229.138C87.8088 229.605 86.4852 229.838 84.9279 229.838C83.3706 229.838 82.0081 229.579 80.8401 229.061C79.6722 228.516 78.7637 227.778 78.1149 226.845C77.492 225.887 77.1806 224.811 77.1806 223.619C77.1806 221.753 77.8683 220.263 79.2439 219.149C80.6455 218.009 82.8385 217.439 85.8233 217.439H91.1959V217.128C91.1959 215.677 90.7546 214.563 89.8722 213.785C89.0157 213.008 87.731 212.619 86.018 212.619C84.85 212.619 83.695 212.8 82.5531 213.163C81.437 213.527 80.4897 214.032 79.7111 214.679L77.8035 211.142C78.8935 210.313 80.2042 209.679 81.7355 209.238C83.2667 208.797 84.889 208.577 86.602 208.577ZM85.9401 226.301C87.1599 226.301 88.2371 226.029 89.1714 225.485C90.1317 224.915 90.8065 224.111 91.1959 223.075V220.665H86.1737C83.3706 220.665 81.9691 221.584 81.9691 223.425C81.9691 224.305 82.3195 225.005 83.0203 225.524C83.721 226.042 84.6943 226.301 85.9401 226.301ZM121.393 208.81L112.478 229.566H107.456L98.5404 208.81H103.601L110.064 224.202L116.721 208.81H121.393ZM143.409 219.305C143.409 219.641 143.382 220.121 143.331 220.743H127.018C127.303 222.272 128.043 223.489 129.238 224.396C130.457 225.277 131.963 225.718 133.754 225.718C136.037 225.718 137.919 224.966 139.399 223.464L142.007 226.456C141.073 227.57 139.891 228.413 138.464 228.983C137.036 229.552 135.428 229.838 133.637 229.838C131.352 229.838 129.341 229.385 127.602 228.478C125.863 227.57 124.513 226.314 123.554 224.707C122.619 223.075 122.152 221.235 122.152 219.188C122.152 217.167 122.606 215.353 123.515 213.746C124.449 212.114 125.734 210.845 127.369 209.937C129.004 209.03 130.846 208.577 132.897 208.577C134.922 208.577 136.725 209.03 138.309 209.937C139.917 210.818 141.163 212.075 142.046 213.708C142.954 215.315 143.409 217.18 143.409 219.305ZM132.897 212.464C131.34 212.464 130.016 212.93 128.926 213.863C127.862 214.77 127.213 215.987 126.98 217.517H138.776C138.568 216.014 137.931 214.796 136.868 213.863C135.804 212.93 134.48 212.464 132.897 212.464ZM148.083 200.726H152.949V229.566H148.083V200.726ZM189.873 215.418C191.378 215.91 192.572 216.739 193.455 217.905C194.337 219.046 194.779 220.471 194.779 222.181C194.779 224.538 193.87 226.365 192.053 227.661C190.236 228.931 187.588 229.566 184.111 229.566H170.563V202.358H183.333C186.551 202.358 189.029 202.993 190.769 204.263C192.507 205.506 193.377 207.23 193.377 209.432C193.377 210.779 193.066 211.972 192.443 213.008C191.82 214.044 190.963 214.848 189.873 215.418ZM175.624 206.323V213.824H182.788C184.552 213.824 185.902 213.513 186.837 212.891C187.796 212.244 188.277 211.311 188.277 210.093C188.277 208.849 187.796 207.916 186.837 207.294C185.902 206.647 184.552 206.323 182.788 206.323H175.624ZM183.8 225.601C187.719 225.601 189.679 224.293 189.679 221.676C189.679 219.058 187.719 217.75 183.8 217.75H175.624V225.601H183.8ZM219.839 208.81V229.566H215.207V226.923C214.428 227.856 213.455 228.581 212.287 229.099C211.119 229.591 209.861 229.838 208.51 229.838C205.734 229.838 203.541 229.074 201.931 227.545C200.348 225.99 199.556 223.697 199.556 220.665V208.81H204.423V220.004C204.423 221.87 204.839 223.269 205.668 224.202C206.525 225.109 207.732 225.562 209.289 225.562C211.029 225.562 212.404 225.032 213.416 223.969C214.455 222.881 214.973 221.326 214.973 219.305V208.81H219.839ZM246.573 200.726V229.566H241.901V226.884C241.096 227.869 240.097 228.608 238.904 229.099C237.736 229.591 236.438 229.838 235.011 229.838C233.012 229.838 231.207 229.397 229.599 228.516C228.015 227.636 226.769 226.392 225.862 224.785C224.953 223.153 224.499 221.287 224.499 219.188C224.499 217.089 224.953 215.237 225.862 213.63C226.769 212.023 228.015 210.779 229.599 209.899C231.207 209.018 233.012 208.577 235.011 208.577C236.385 208.577 237.644 208.81 238.787 209.277C239.928 209.743 240.901 210.443 241.707 211.376V200.726H246.573ZM235.595 225.679C236.762 225.679 237.814 225.42 238.748 224.902C239.682 224.358 240.422 223.594 240.967 222.608C241.512 221.623 241.785 220.484 241.785 219.188C241.785 217.892 241.512 216.753 240.967 215.768C240.422 214.783 239.682 214.032 238.748 213.513C237.814 212.969 236.762 212.697 235.595 212.697C234.427 212.697 233.375 212.969 232.441 213.513C231.507 214.032 230.767 214.783 230.222 215.768C229.677 216.753 229.404 217.892 229.404 219.188C229.404 220.484 229.677 221.623 230.222 222.608C230.767 223.594 231.507 224.358 232.441 224.902C233.375 225.42 234.427 225.679 235.595 225.679ZM273.3 200.726V229.566H268.628V226.884C267.824 227.869 266.825 228.608 265.63 229.099C264.462 229.591 263.165 229.838 261.737 229.838C259.739 229.838 257.935 229.397 256.325 228.516C254.743 227.636 253.497 226.392 252.588 224.785C251.68 223.153 251.225 221.287 251.225 219.188C251.225 217.089 251.68 215.237 252.588 213.63C253.497 212.023 254.743 210.779 256.325 209.899C257.935 209.018 259.739 208.577 261.737 208.577C263.113 208.577 264.372 208.81 265.513 209.277C266.656 209.743 267.629 210.443 268.433 211.376V200.726H273.3ZM262.321 225.679C263.489 225.679 264.54 225.42 265.474 224.902C266.409 224.358 267.148 223.594 267.693 222.608C268.239 221.623 268.511 220.484 268.511 219.188C268.511 217.892 268.239 216.753 267.693 215.768C267.148 214.783 266.409 214.032 265.474 213.513C264.54 212.969 263.489 212.697 262.321 212.697C261.153 212.697 260.102 212.969 259.167 213.513C258.233 214.032 257.493 214.783 256.948 215.768C256.403 216.753 256.131 217.892 256.131 219.188C256.131 220.484 256.403 221.623 256.948 222.608C257.493 223.594 258.233 224.358 259.167 224.902C260.102 225.42 261.153 225.679 262.321 225.679ZM299.132 208.81L289.399 231.237C288.49 233.492 287.388 235.072 286.09 235.979C284.792 236.912 283.222 237.378 281.379 237.378C280.341 237.378 279.316 237.21 278.303 236.873C277.291 236.537 276.46 236.07 275.812 235.474L277.758 231.898C278.226 232.339 278.771 232.689 279.394 232.947C280.042 233.206 280.692 233.336 281.34 233.336C282.197 233.336 282.897 233.116 283.442 232.675C284.013 232.234 284.533 231.496 285 230.46L285.35 229.644L276.279 208.81H281.34L287.881 224.163L294.46 208.81H299.132Z" fill="white"/>
</svg>
